<?xml version="1.0" encoding="UTF-8"?>
<svg  xmlns="http://www.w3.org/2000/svg" viewBox="0 0 10 12.99">
  <g>
    <path d="m9.97,2.94c.15-.98-.75-.85-1.38-.9-.58.02-1.39-.33-.89-.86.34-.28-.24-.69-.43-.86-1.29-.39-3-.58-5.18.41-.09.39.27.24.2.91-.19.57-.92-.05-1.25-.09-.27.02-.84.36-1.01.53-.07.47-.02.72.15,1.1,0,.22-.13.54-.06.76.12.18.13.57.17.8.13.25.22.29.13.95.21.73.44,2.38,1.1,3.49,1.35,1.41,2.83,6,4.98,2.56.18-.32.75-.6.81-.93,0-.27.44-.46.43-.71.24-.44.14-.75.59-1.17.39-.73.85-1.44,1.07-2.24.3-.45-.18-.64.08-1.06.25-.34.26-.19.24-.38.01-.5.3-1.12.15-1.6-.06-.25.22-.39.1-.73Z"/>
  </g>
</svg>